<?xml version="1.0" encoding="UTF-8"?><svg id="Layer_2" xmlns="http://www.w3.org/2000/svg" xmlns:xlink="http://www.w3.org/1999/xlink" viewBox="0 0 176.96 176.95"><defs><style>.cls-1{fill:url(#linear-gradient);}.cls-1,.cls-2{stroke-width:0px;}.cls-2{fill:#fff;}</style><linearGradient id="linear-gradient" x1="0" y1="94.86" x2="164.25" y2="94.86" gradientUnits="userSpaceOnUse"><stop offset="0" stop-color="#2e69ff"/><stop offset="1" stop-color="#11275f"/></linearGradient></defs><g id="Layer_1-2"><path class="cls-1" d="m55.29,120.5C26.39,91.05,22.26,46.53,42.67,12.78c-5.74,3.48-11.18,7.64-16.17,12.55-34.87,34.23-35.39,90.25-1.16,125.13,34.23,34.87,90.25,35.39,125.13,1.16,5.43-5.33,10.02-11.18,13.78-17.41-34.31,20.81-79.63,16.17-108.96-13.71Z"/><path class="cls-2" d="m151.62,26.48C122.29-3.4,76.98-8.03,42.67,12.78c-20.41,33.75-16.28,78.28,12.62,107.72,29.33,29.88,74.64,34.51,108.96,13.71,20.41-33.75,16.28-78.28-12.62-107.72Z"/></g></svg>